<?xml version="1.0" standalone="no"?>
<!DOCTYPE svg PUBLIC "-//W3C//DTD SVG 20010904//EN"
 "http://www.w3.org/TR/2001/REC-SVG-20010904/DTD/svg10.dtd">
<svg version="1.0" xmlns="http://www.w3.org/2000/svg"
 width="1536.000000pt" height="1536.000000pt" viewBox="0 0 1536.000000 1536.000000"
 preserveAspectRatio="xMidYMid meet">
<metadata>
Created by potrace 1.11, written by Peter Selinger 2001-2013
</metadata>
<g transform="translate(0.000000,1536.000000) scale(0.100000,-0.100000)"
fill="#000000" stroke="none">
<path d="M7498 10945 c-1 -2 -48 -6 -102 -10 -55 -3 -102 -8 -105 -9 -3 -2
-39 -7 -80 -10 -41 -4 -77 -9 -80 -10 -3 -2 -26 -7 -51 -10 -55 -7 -90 -13
-155 -26 -27 -6 -59 -12 -70 -14 -393 -78 -972 -273 -1451 -489 -130 -59 -428
-206 -524 -258 -41 -23 -101 -55 -132 -72 -31 -17 -54 -35 -51 -40 3 -6 1 -7
-5 -3 -7 4 -32 -7 -56 -23 -25 -17 -47 -31 -50 -31 -22 0 -582 -392 -701 -491
-11 -9 -63 -52 -115 -95 -221 -181 -533 -475 -717 -676 -180 -197 -395 -480
-492 -648 -72 -126 -139 -289 -126 -310 3 -5 8 -19 10 -30 10 -50 103 -268
172 -400 145 -279 328 -544 523 -754 92 -100 388 -394 485 -481 55 -50 102
-92 105 -95 15 -17 210 -177 305 -251 250 -195 561 -400 820 -539 44 -24 103
-56 132 -71 37 -21 53 -25 56 -16 4 8 6 7 6 -3 1 -8 22 -25 49 -37 26 -12 85
-40 132 -61 84 -39 459 -191 483 -196 7 -2 19 -6 27 -9 66 -28 500 -167 565
-182 11 -2 52 -13 90 -24 171 -46 483 -114 635 -137 19 -3 46 -7 60 -10 14 -2
45 -6 70 -10 25 -3 56 -7 70 -10 177 -28 567 -23 830 11 25 4 65 8 90 11 25 2
52 6 60 9 8 2 39 7 69 10 52 7 67 9 121 20 14 2 41 7 60 10 19 3 78 15 130 26
52 11 109 23 125 25 190 32 785 210 1059 317 45 17 86 32 91 33 17 4 256 105
340 144 186 86 314 154 308 163 -3 6 -1 7 6 3 26 -16 496 314 810 569 329 267
727 655 1011 985 36 41 67 77 70 80 3 3 32 39 65 80 33 41 63 77 66 80 16 13
196 263 253 349 69 106 149 252 159 289 12 50 -80 246 -210 446 -57 87 -266
369 -297 402 -6 6 -27 31 -48 55 -191 230 -509 552 -784 794 -29 26 -53 46
-139 118 -127 106 -182 151 -246 199 -156 119 -251 190 -299 224 -164 114
-252 174 -257 174 -3 0 -22 14 -43 30 -21 17 -41 30 -44 30 -4 0 -33 18 -65
39 -120 82 -493 260 -762 365 -332 129 -866 286 -1149 337 -25 5 -58 11 -75
14 -46 9 -186 34 -225 40 -19 3 -46 8 -60 10 -29 5 -173 22 -245 30 -27 3 -70
8 -95 11 -51 6 -406 14 -412 9z m2402 -3273 l0 -923 -71 -72 c-76 -77 -626
-638 -979 -998 l-215 -219 -907 -5 -907 -5 -34 32 c-115 111 -436 418 -463
443 -17 17 -118 113 -225 215 -106 102 -240 230 -298 286 -59 56 -152 146
-208 200 l-103 99 -5 295 c-5 285 -10 576 -20 1223 l-5 308 659 659 659 660
149 1 c81 0 301 2 488 4 187 3 528 6 758 9 230 2 420 6 423 8 2 3 297 -288
654 -646 l650 -650 0 -924z"/>
</g>
</svg>
